# xmcd
#
# Track frame offsets: 
#        183
#        17785
#        32445
#        47510
#        64595
#        77748
#        90170
#        101800
#        114190
#        125560
#        135440
#        153150
#        168435
#        183528
#        197765
#        212325
#        224098
#        236300
#        245043
#        257050
#
# Disc length: 3588 seconds
#
# Revision: 2
# Processed by: cddbd v1.5.2PL0 Copyright (c) Steve Scherf et al.
# Submitted via: ExactAudioCopy v1.0b4
#
DISCID=060e0214
DTITLE=Various Artist - Just Between The Two Of Us
DYEAR=1992
DGENRE=Country
TTITLE0=You And I - Eddie Rabbitt With Crystal Gayle
TTITLE1=Don't Go Out - Tanya Tucker With T. Graham Brown
TTITLE2=You're Still New To Me - Marie Osmond With Paul Davis
TTITLE3=Angels Love Bad Men - Barbara Mandrell With Waylon Jennings
TTITLE4=On The Rebound - Del Reeves And Billie Jo Spears
TTITLE5=Jackson - Johnny Cash With June Carter
TTITLE6=All I Have To Do Is Dream - Glen Campbell And Bobbie Gentry
TTITLE7=Just Between The Two Of Us - Merle Haggard And Bonnie Owens
TTITLE8=Love Is No Excuse - Jim Reeves And Dottie West
TTITLE9=Making Plans - Porter Wagoner And Dolly Parton
TTITLE10=Meet Me In Montana - Dan Seals And Marie Osmond
TTITLE11=You're The Reason God Made Oklahoma - David Frizzell And Shel
TTITLE11=ly West
TTITLE12=Crazy Arms - Barbara Mandrell And Ray Price
TTITLE13=I Still Believe In Waltzes - Conway Twitty And Loretta Lynn
TTITLE14=The Letter That Johnny Walker Read - Asleep At The Wheel
TTITLE15=United We Stand - Anne Murray And Glen Campbell
TTITLE16=Rings Of Gold - Don Gibson And Dottie West
TTITLE17=We'll Get Ahead Someday - Porter Wagoner And Dolly Parton
TTITLE18=We Must Have Been Out Of Our Minds - George Jones And Melba M
TTITLE18=ontgomery
TTITLE19=Willingly - Willie Nelson And Shirley Collie
EXTD=
EXTT0=
EXTT1=
EXTT2=
EXTT3=
EXTT4=
EXTT5=
EXTT6=
EXTT7=
EXTT8=
EXTT9=
EXTT10=
EXTT11=
EXTT12=
EXTT13=
EXTT14=
EXTT15=
EXTT16=
EXTT17=
EXTT18=
EXTT19=
PLAYORDER=
